ISO-10303-21;
HEADER;
/* Generated by software containing ST-Developer
 * from STEP Tools, Inc. (www.steptools.com) 
 */
/* OPTION: using custom renumber hook */

FILE_DESCRIPTION(
/* description */ ('STEP AP242',
'CAx-IF Rec.Pracs.---Representation and Presentation of Product Manufa
cturing Information (PMI)---4.0---2014-10-13',
'CAx-IF Rec.Pracs.---3D Tessellated Geometry---0.4---2014-09-14','2;1',
'CAx-IF Rec.Pracs.---User Defined Attributes---1.5---2016-08-15'),
/* implementation_level */ '2;1');

FILE_NAME(
/* name */ 'Slide_Base_Side_Switch - Cog',
/* time_stamp */ '2025-11-20T06:11:15Z',
/* author */ (''),
/* organization */ (''),
/* preprocessor_version */ 'ST-DEVELOPER v20',
/* originating_system */ 'ONSHAPE BY PTC INC, 1.206',
/* authorisation */ '  ');

FILE_SCHEMA (('AP242_MANAGED_MODEL_BASED_3D_ENGINEERING_MIM_LF { 1 0 10303 442 1 1 4 }'));
ENDSEC;

DATA;
#10=SHAPE_REPRESENTATION_RELATIONSHIP('','',#333,#11);
#11=ADVANCED_BREP_SHAPE_REPRESENTATION('',(#331),#565);
#12=CONICAL_SURFACE('',#359,0.00144999622903805,0.785398163397445);
#13=CONICAL_SURFACE('',#360,0.00169999622903805,0.785398163397446);
#14=CONICAL_SURFACE('',#362,0.00474999505855671,0.785398163397445);
#15=CONICAL_SURFACE('',#363,0.00224999032731046,0.785398163397446);
#16=CONICAL_SURFACE('',#366,0.00499999505855671,0.785398163397445);
#17=CONICAL_SURFACE('',#367,0.00249999032731046,0.785398163397446);
#18=CONICAL_SURFACE('',#369,0.00269999470289637,0.785398163397452);
#19=CONICAL_SURFACE('',#370,0.0036,0.0349065850398866);
#20=CONICAL_SURFACE('',#374,0.00376587897328311,0.802851455917403);
#21=PLANE('',#341);
#22=PLANE('',#345);
#23=PLANE('',#349);
#24=PLANE('',#354);
#25=PLANE('',#361);
#26=PLANE('',#364);
#27=PLANE('',#365);
#28=PLANE('',#368);
#29=PLANE('',#373);
#30=LINE('',#484,#50);
#31=LINE('',#489,#51);
#32=LINE('',#493,#52);
#33=LINE('',#496,#53);
#34=LINE('',#497,#54);
#35=LINE('',#499,#55);
#36=LINE('',#505,#56);
#37=LINE('',#506,#57);
#38=LINE('',#520,#58);
#39=LINE('',#524,#59);
#40=LINE('',#531,#60);
#41=LINE('',#535,#61);
#42=LINE('',#541,#62);
#43=LINE('',#542,#63);
#44=LINE('',#544,#64);
#45=LINE('',#546,#65);
#46=LINE('',#549,#66);
#47=LINE('',#550,#67);
#48=LINE('',#552,#68);
#49=LINE('',#554,#69);
#50=VECTOR('',#385,1.);
#51=VECTOR('',#388,1.);
#52=VECTOR('',#393,1.);
#53=VECTOR('',#394,1.);
#54=VECTOR('',#395,1.);
#55=VECTOR('',#398,1.);
#56=VECTOR('',#405,1.);
#57=VECTOR('',#406,1.);
#58=VECTOR('',#421,1.);
#59=VECTOR('',#424,1.);
#60=VECTOR('',#431,1.);
#61=VECTOR('',#434,1.);
#62=VECTOR('',#443,1.);
#63=VECTOR('',#444,1.);
#64=VECTOR('',#447,1.);
#65=VECTOR('',#450,1.);
#66=VECTOR('',#455,1.);
#67=VECTOR('',#456,1.);
#68=VECTOR('',#459,1.);
#69=VECTOR('',#462,1.);
#70=ORIENTED_EDGE('',*,*,#146,.T.);
#71=ORIENTED_EDGE('',*,*,#147,.T.);
#72=ORIENTED_EDGE('',*,*,#148,.F.);
#73=ORIENTED_EDGE('',*,*,#149,.T.);
#74=ORIENTED_EDGE('',*,*,#150,.T.);
#75=ORIENTED_EDGE('',*,*,#151,.T.);
#76=ORIENTED_EDGE('',*,*,#152,.F.);
#77=ORIENTED_EDGE('',*,*,#153,.T.);
#78=ORIENTED_EDGE('',*,*,#148,.T.);
#79=ORIENTED_EDGE('',*,*,#154,.T.);
#80=ORIENTED_EDGE('',*,*,#155,.F.);
#81=ORIENTED_EDGE('',*,*,#156,.T.);
#82=ORIENTED_EDGE('',*,*,#152,.T.);
#83=ORIENTED_EDGE('',*,*,#157,.T.);
#84=ORIENTED_EDGE('',*,*,#150,.F.);
#85=ORIENTED_EDGE('',*,*,#158,.T.);
#86=ORIENTED_EDGE('',*,*,#155,.T.);
#87=ORIENTED_EDGE('',*,*,#159,.T.);
#88=ORIENTED_EDGE('',*,*,#160,.T.);
#89=ORIENTED_EDGE('',*,*,#161,.T.);
#90=ORIENTED_EDGE('',*,*,#162,.T.);
#91=ORIENTED_EDGE('',*,*,#163,.T.);
#92=ORIENTED_EDGE('',*,*,#164,.T.);
#93=ORIENTED_EDGE('',*,*,#165,.T.);
#94=ORIENTED_EDGE('',*,*,#166,.T.);
#95=ORIENTED_EDGE('',*,*,#167,.T.);
#96=ORIENTED_EDGE('',*,*,#168,.T.);
#97=ORIENTED_EDGE('',*,*,#169,.T.);
#98=ORIENTED_EDGE('',*,*,#170,.T.);
#99=ORIENTED_EDGE('',*,*,#171,.T.);
#100=ORIENTED_EDGE('',*,*,#172,.T.);
#101=ORIENTED_EDGE('',*,*,#173,.T.);
#102=ORIENTED_EDGE('',*,*,#163,.F.);
#103=ORIENTED_EDGE('',*,*,#160,.F.);
#104=ORIENTED_EDGE('',*,*,#161,.F.);
#105=ORIENTED_EDGE('',*,*,#168,.F.);
#106=ORIENTED_EDGE('',*,*,#174,.F.);
#107=ORIENTED_EDGE('',*,*,#167,.F.);
#108=ORIENTED_EDGE('',*,*,#175,.F.);
#109=ORIENTED_EDGE('',*,*,#153,.F.);
#110=ORIENTED_EDGE('',*,*,#175,.T.);
#111=ORIENTED_EDGE('',*,*,#166,.F.);
#112=ORIENTED_EDGE('',*,*,#176,.F.);
#113=ORIENTED_EDGE('',*,*,#149,.F.);
#114=ORIENTED_EDGE('',*,*,#174,.T.);
#115=ORIENTED_EDGE('',*,*,#156,.F.);
#116=ORIENTED_EDGE('',*,*,#177,.F.);
#117=ORIENTED_EDGE('',*,*,#164,.F.);
#118=ORIENTED_EDGE('',*,*,#176,.T.);
#119=ORIENTED_EDGE('',*,*,#165,.F.);
#120=ORIENTED_EDGE('',*,*,#177,.T.);
#121=ORIENTED_EDGE('',*,*,#158,.F.);
#122=ORIENTED_EDGE('',*,*,#178,.F.);
#123=ORIENTED_EDGE('',*,*,#154,.F.);
#124=ORIENTED_EDGE('',*,*,#179,.F.);
#125=ORIENTED_EDGE('',*,*,#172,.F.);
#126=ORIENTED_EDGE('',*,*,#179,.T.);
#127=ORIENTED_EDGE('',*,*,#151,.F.);
#128=ORIENTED_EDGE('',*,*,#180,.F.);
#129=ORIENTED_EDGE('',*,*,#169,.F.);
#130=ORIENTED_EDGE('',*,*,#178,.T.);
#131=ORIENTED_EDGE('',*,*,#171,.F.);
#132=ORIENTED_EDGE('',*,*,#181,.F.);
#133=ORIENTED_EDGE('',*,*,#157,.F.);
#134=ORIENTED_EDGE('',*,*,#180,.T.);
#135=ORIENTED_EDGE('',*,*,#159,.F.);
#136=ORIENTED_EDGE('',*,*,#181,.T.);
#137=ORIENTED_EDGE('',*,*,#170,.F.);
#138=ORIENTED_EDGE('',*,*,#146,.F.);
#139=ORIENTED_EDGE('',*,*,#173,.F.);
#140=ORIENTED_EDGE('',*,*,#182,.T.);
#141=ORIENTED_EDGE('',*,*,#183,.F.);
#142=ORIENTED_EDGE('',*,*,#147,.F.);
#143=ORIENTED_EDGE('',*,*,#183,.T.);
#144=ORIENTED_EDGE('',*,*,#162,.F.);
#145=ORIENTED_EDGE('',*,*,#182,.F.);
#146=EDGE_CURVE('',#184,#184,#210,.T.);
#147=EDGE_CURVE('',#185,#185,#211,.T.);
#148=EDGE_CURVE('',#186,#187,#30,.T.);
#149=EDGE_CURVE('',#186,#188,#212,.F.);
#150=EDGE_CURVE('',#188,#189,#31,.T.);
#151=EDGE_CURVE('',#189,#187,#213,.T.);
#152=EDGE_CURVE('',#190,#191,#32,.T.);
#153=EDGE_CURVE('',#190,#186,#33,.T.);
#154=EDGE_CURVE('',#187,#191,#34,.T.);
#155=EDGE_CURVE('',#192,#193,#35,.T.);
#156=EDGE_CURVE('',#192,#190,#214,.F.);
#157=EDGE_CURVE('',#191,#193,#215,.T.);
#158=EDGE_CURVE('',#188,#192,#36,.T.);
#159=EDGE_CURVE('',#193,#189,#37,.T.);
#160=EDGE_CURVE('',#194,#194,#216,.T.);
#161=EDGE_CURVE('',#195,#195,#217,.F.);
#162=EDGE_CURVE('',#196,#196,#218,.F.);
#163=EDGE_CURVE('',#197,#197,#219,.F.);
#164=EDGE_CURVE('',#198,#199,#220,.T.);
#165=EDGE_CURVE('',#199,#200,#38,.T.);
#166=EDGE_CURVE('',#200,#201,#221,.T.);
#167=EDGE_CURVE('',#201,#198,#39,.T.);
#168=EDGE_CURVE('',#202,#202,#222,.T.);
#169=EDGE_CURVE('',#203,#204,#223,.F.);
#170=EDGE_CURVE('',#204,#205,#40,.T.);
#171=EDGE_CURVE('',#205,#206,#224,.F.);
#172=EDGE_CURVE('',#206,#203,#41,.T.);
#173=EDGE_CURVE('',#207,#207,#225,.T.);
#174=EDGE_CURVE('',#198,#190,#42,.T.);
#175=EDGE_CURVE('',#186,#201,#43,.T.);
#176=EDGE_CURVE('',#188,#200,#44,.T.);
#177=EDGE_CURVE('',#199,#192,#45,.T.);
#178=EDGE_CURVE('',#191,#206,#46,.T.);
#179=EDGE_CURVE('',#203,#187,#47,.T.);
#180=EDGE_CURVE('',#204,#189,#48,.T.);
#181=EDGE_CURVE('',#193,#205,#49,.T.);
#182=EDGE_CURVE('',#208,#208,#226,.T.);
#183=EDGE_CURVE('',#209,#209,#227,.T.);
#184=VERTEX_POINT('',#480);
#185=VERTEX_POINT('',#482);
#186=VERTEX_POINT('',#485);
#187=VERTEX_POINT('',#486);
#188=VERTEX_POINT('',#488);
#189=VERTEX_POINT('',#490);
#190=VERTEX_POINT('',#494);
#191=VERTEX_POINT('',#495);
#192=VERTEX_POINT('',#500);
#193=VERTEX_POINT('',#501);
#194=VERTEX_POINT('',#509);
#195=VERTEX_POINT('',#511);
#196=VERTEX_POINT('',#514);
#197=VERTEX_POINT('',#516);
#198=VERTEX_POINT('',#518);
#199=VERTEX_POINT('',#519);
#200=VERTEX_POINT('',#521);
#201=VERTEX_POINT('',#523);
#202=VERTEX_POINT('',#527);
#203=VERTEX_POINT('',#529);
#204=VERTEX_POINT('',#530);
#205=VERTEX_POINT('',#532);
#206=VERTEX_POINT('',#534);
#207=VERTEX_POINT('',#537);
#208=VERTEX_POINT('',#559);
#209=VERTEX_POINT('',#561);
#210=CIRCLE('',#336,0.00257499470289636);
#211=CIRCLE('',#337,0.00257499470289636);
#212=CIRCLE('',#339,0.00499999505855671);
#213=CIRCLE('',#340,0.00499999505855671);
#214=CIRCLE('',#343,0.00249999032731046);
#215=CIRCLE('',#344,0.00249999032731046);
#216=CIRCLE('',#347,0.00144999622903805);
#217=CIRCLE('',#348,0.00144999622903805);
#218=CIRCLE('',#350,0.00402460384745874);
#219=CIRCLE('',#351,0.00169999622903805);
#220=CIRCLE('',#352,0.00224999032731046);
#221=CIRCLE('',#353,0.00474999505855671);
#222=CIRCLE('',#355,0.00169999622903805);
#223=CIRCLE('',#356,0.00474999505855671);
#224=CIRCLE('',#357,0.00224999032731046);
#225=CIRCLE('',#358,0.00269999470289637);
#226=CIRCLE('',#371,0.00376587897328311);
#227=CIRCLE('',#372,0.0036);
#228=EDGE_LOOP('',(#70));
#229=EDGE_LOOP('',(#71));
#230=EDGE_LOOP('',(#72,#73,#74,#75));
#231=EDGE_LOOP('',(#76,#77,#78,#79));
#232=EDGE_LOOP('',(#80,#81,#82,#83));
#233=EDGE_LOOP('',(#84,#85,#86,#87));
#234=EDGE_LOOP('',(#88));
#235=EDGE_LOOP('',(#89));
#236=EDGE_LOOP('',(#90));
#237=EDGE_LOOP('',(#91));
#238=EDGE_LOOP('',(#92,#93,#94,#95));
#239=EDGE_LOOP('',(#96));
#240=EDGE_LOOP('',(#97,#98,#99,#100));
#241=EDGE_LOOP('',(#101));
#242=EDGE_LOOP('',(#102));
#243=EDGE_LOOP('',(#103));
#244=EDGE_LOOP('',(#104));
#245=EDGE_LOOP('',(#105));
#246=EDGE_LOOP('',(#106,#107,#108,#109));
#247=EDGE_LOOP('',(#110,#111,#112,#113));
#248=EDGE_LOOP('',(#114,#115,#116,#117));
#249=EDGE_LOOP('',(#118,#119,#120,#121));
#250=EDGE_LOOP('',(#122,#123,#124,#125));
#251=EDGE_LOOP('',(#126,#127,#128,#129));
#252=EDGE_LOOP('',(#130,#131,#132,#133));
#253=EDGE_LOOP('',(#134,#135,#136,#137));
#254=EDGE_LOOP('',(#138));
#255=EDGE_LOOP('',(#139));
#256=EDGE_LOOP('',(#140));
#257=EDGE_LOOP('',(#141));
#258=EDGE_LOOP('',(#142));
#259=EDGE_LOOP('',(#143));
#260=EDGE_LOOP('',(#144));
#261=EDGE_LOOP('',(#145));
#262=FACE_BOUND('',#228,.T.);
#263=FACE_BOUND('',#229,.T.);
#264=FACE_BOUND('',#230,.T.);
#265=FACE_BOUND('',#231,.T.);
#266=FACE_BOUND('',#232,.T.);
#267=FACE_BOUND('',#233,.T.);
#268=FACE_BOUND('',#234,.T.);
#269=FACE_BOUND('',#235,.T.);
#270=FACE_BOUND('',#236,.T.);
#271=FACE_BOUND('',#237,.T.);
#272=FACE_BOUND('',#238,.T.);
#273=FACE_BOUND('',#239,.T.);
#274=FACE_BOUND('',#240,.T.);
#275=FACE_BOUND('',#241,.T.);
#276=FACE_BOUND('',#242,.T.);
#277=FACE_BOUND('',#243,.T.);
#278=FACE_BOUND('',#244,.T.);
#279=FACE_BOUND('',#245,.T.);
#280=FACE_BOUND('',#246,.T.);
#281=FACE_BOUND('',#247,.T.);
#282=FACE_BOUND('',#248,.T.);
#283=FACE_BOUND('',#249,.T.);
#284=FACE_BOUND('',#250,.T.);
#285=FACE_BOUND('',#251,.T.);
#286=FACE_BOUND('',#252,.T.);
#287=FACE_BOUND('',#253,.T.);
#288=FACE_BOUND('',#254,.T.);
#289=FACE_BOUND('',#255,.T.);
#290=FACE_BOUND('',#256,.T.);
#291=FACE_BOUND('',#257,.T.);
#292=FACE_BOUND('',#258,.T.);
#293=FACE_BOUND('',#259,.T.);
#294=FACE_BOUND('',#260,.T.);
#295=FACE_BOUND('',#261,.T.);
#296=CYLINDRICAL_SURFACE('',#335,0.00257499470289636);
#297=CYLINDRICAL_SURFACE('',#338,0.00499999505855671);
#298=CYLINDRICAL_SURFACE('',#342,0.00249999032731046);
#299=CYLINDRICAL_SURFACE('',#346,0.00144999622903805);
#300=ADVANCED_FACE('',(#262,#263),#296,.F.);
#301=ADVANCED_FACE('',(#264),#297,.T.);
#302=ADVANCED_FACE('',(#265),#21,.T.);
#303=ADVANCED_FACE('',(#266),#298,.T.);
#304=ADVANCED_FACE('',(#267),#22,.T.);
#305=ADVANCED_FACE('',(#268,#269),#299,.F.);
#306=ADVANCED_FACE('',(#270,#271,#272),#23,.T.);
#307=ADVANCED_FACE('',(#273,#274,#275),#24,.F.);
#308=ADVANCED_FACE('',(#276,#277),#12,.F.);
#309=ADVANCED_FACE('',(#278,#279),#13,.F.);
#310=ADVANCED_FACE('',(#280),#25,.F.);
#311=ADVANCED_FACE('',(#281),#14,.T.);
#312=ADVANCED_FACE('',(#282),#15,.T.);
#313=ADVANCED_FACE('',(#283),#26,.F.);
#314=ADVANCED_FACE('',(#284),#27,.T.);
#315=ADVANCED_FACE('',(#285),#16,.T.);
#316=ADVANCED_FACE('',(#286),#17,.T.);
#317=ADVANCED_FACE('',(#287),#28,.T.);
#318=ADVANCED_FACE('',(#288,#289),#18,.F.);
#319=ADVANCED_FACE('',(#290,#291),#19,.F.);
#320=ADVANCED_FACE('',(#292,#293),#29,.T.);
#321=ADVANCED_FACE('',(#294,#295),#20,.F.);
#322=CLOSED_SHELL('',(#300,#301,#302,#303,#304,#305,#306,#307,#308,#309,
#310,#311,#312,#313,#314,#315,#316,#317,#318,#319,#320,#321));
#323=STYLED_ITEM('',(#324),#331);
#324=PRESENTATION_STYLE_ASSIGNMENT((#325));
#325=SURFACE_STYLE_USAGE(.BOTH.,#326);
#326=SURFACE_SIDE_STYLE('',(#327));
#327=SURFACE_STYLE_FILL_AREA(#328);
#328=FILL_AREA_STYLE('',(#329));
#329=FILL_AREA_STYLE_COLOUR('',#330);
#330=COLOUR_RGB('',0.882352941176471,0.572549019607843,0.47843137254902);
#331=MANIFOLD_SOLID_BREP('Cog',#322);
#332=SHAPE_DEFINITION_REPRESENTATION(#570,#333);
#333=SHAPE_REPRESENTATION('Cog',(#334),#565);
#334=AXIS2_PLACEMENT_3D('',#477,#375,#376);
#335=AXIS2_PLACEMENT_3D('',#478,#377,#378);
#336=AXIS2_PLACEMENT_3D('',#479,#379,#380);
#337=AXIS2_PLACEMENT_3D('',#481,#381,#382);
#338=AXIS2_PLACEMENT_3D('',#483,#383,#384);
#339=AXIS2_PLACEMENT_3D('',#487,#386,#387);
#340=AXIS2_PLACEMENT_3D('',#491,#389,#390);
#341=AXIS2_PLACEMENT_3D('',#492,#391,#392);
#342=AXIS2_PLACEMENT_3D('',#498,#396,#397);
#343=AXIS2_PLACEMENT_3D('',#502,#399,#400);
#344=AXIS2_PLACEMENT_3D('',#503,#401,#402);
#345=AXIS2_PLACEMENT_3D('',#504,#403,#404);
#346=AXIS2_PLACEMENT_3D('',#507,#407,#408);
#347=AXIS2_PLACEMENT_3D('',#508,#409,#410);
#348=AXIS2_PLACEMENT_3D('',#510,#411,#412);
#349=AXIS2_PLACEMENT_3D('',#512,#413,#414);
#350=AXIS2_PLACEMENT_3D('',#513,#415,#416);
#351=AXIS2_PLACEMENT_3D('',#515,#417,#418);
#352=AXIS2_PLACEMENT_3D('',#517,#419,#420);
#353=AXIS2_PLACEMENT_3D('',#522,#422,#423);
#354=AXIS2_PLACEMENT_3D('',#525,#425,#426);
#355=AXIS2_PLACEMENT_3D('',#526,#427,#428);
#356=AXIS2_PLACEMENT_3D('',#528,#429,#430);
#357=AXIS2_PLACEMENT_3D('',#533,#432,#433);
#358=AXIS2_PLACEMENT_3D('',#536,#435,#436);
#359=AXIS2_PLACEMENT_3D('',#538,#437,#438);
#360=AXIS2_PLACEMENT_3D('',#539,#439,#440);
#361=AXIS2_PLACEMENT_3D('',#540,#441,#442);
#362=AXIS2_PLACEMENT_3D('',#543,#445,#446);
#363=AXIS2_PLACEMENT_3D('',#545,#448,#449);
#364=AXIS2_PLACEMENT_3D('',#547,#451,#452);
#365=AXIS2_PLACEMENT_3D('',#548,#453,#454);
#366=AXIS2_PLACEMENT_3D('',#551,#457,#458);
#367=AXIS2_PLACEMENT_3D('',#553,#460,#461);
#368=AXIS2_PLACEMENT_3D('',#555,#463,#464);
#369=AXIS2_PLACEMENT_3D('',#556,#465,#466);
#370=AXIS2_PLACEMENT_3D('',#557,#467,#468);
#371=AXIS2_PLACEMENT_3D('',#558,#469,#470);
#372=AXIS2_PLACEMENT_3D('',#560,#471,#472);
#373=AXIS2_PLACEMENT_3D('',#562,#473,#474);
#374=AXIS2_PLACEMENT_3D('',#563,#475,#476);
#375=DIRECTION('',(0.,0.,1.));
#376=DIRECTION('',(1.,0.,0.));
#377=DIRECTION('',(-1.20496295667406E-16,2.18687118288134E-17,-1.));
#378=DIRECTION('',(-0.351402777545224,-0.936224379053174,2.18687118288134E-17));
#379=DIRECTION('',(-1.20496295667406E-16,2.18687118288134E-17,-1.));
#380=DIRECTION('',(-0.936224379053174,0.351402777545224,1.20496295667406E-16));
#381=DIRECTION('',(1.20496295667406E-16,-2.18687118288134E-17,1.));
#382=DIRECTION('',(0.936224379053174,-0.351402777545224,-1.20496295667406E-16));
#383=DIRECTION('',(-1.20496295667406E-16,2.18687118288134E-17,-1.));
#384=DIRECTION('',(-0.351402777545224,-0.936224379053174,2.18687118288134E-17));
#385=DIRECTION('',(-1.20496295667406E-16,2.18687118288134E-17,-1.));
#386=DIRECTION('',(1.20496295667406E-16,-2.18687118288134E-17,1.));
#387=DIRECTION('',(0.351402777545224,0.936224379053174,-2.18687118288134E-17));
#388=DIRECTION('',(-1.20496295667406E-16,2.18687118288134E-17,-1.));
#389=DIRECTION('',(1.20496295667406E-16,-2.18687118288134E-17,1.));
#390=DIRECTION('',(0.351402777545224,0.936224379053174,-2.18687118288134E-17));
#391=DIRECTION('',(-0.983926922858901,0.178571583611203,1.22464679914735E-16));
#392=DIRECTION('',(0.178571583611203,0.983926922858902,-3.08148791101958E-33));
#393=DIRECTION('',(-1.20496295667406E-16,2.18687118288134E-17,-1.));
#394=DIRECTION('',(0.178571583611203,0.983926922858902,-3.08148791101958E-33));
#395=DIRECTION('',(-0.178571583611203,-0.983926922858902,3.08148791101958E-33));
#396=DIRECTION('',(-1.20496295667406E-16,2.18687118288134E-17,-1.));
#397=DIRECTION('',(-0.351402777545224,-0.936224379053174,2.18687118288134E-17));
#398=DIRECTION('',(-1.20496295667406E-16,2.18687118288134E-17,-1.));
#399=DIRECTION('',(1.20496295667406E-16,-2.18687118288134E-17,1.));
#400=DIRECTION('',(0.351402777545224,0.936224379053174,-2.18687118288134E-17));
#401=DIRECTION('',(1.20496295667406E-16,-2.18687118288134E-17,1.));
#402=DIRECTION('',(0.351402777545224,0.936224379053174,-2.18687118288134E-17));
#403=DIRECTION('',(0.858425807388132,-0.512937747889579,-1.1465441769029E-16));
#404=DIRECTION('',(-0.512937747889579,-0.858425807388133,4.30344319204885E-17));
#405=DIRECTION('',(-0.512937747889579,-0.858425807388133,4.30344319204885E-17));
#406=DIRECTION('',(0.512937747889579,0.858425807388133,-4.30344319204885E-17));
#407=DIRECTION('',(-1.20496295667406E-16,2.18687118288134E-17,-1.));
#408=DIRECTION('',(-0.351402777545224,-0.936224379053174,2.18687118288134E-17));
#409=DIRECTION('',(1.20496295667406E-16,-2.18687118288134E-17,1.));
#410=DIRECTION('',(0.351402777545224,0.936224379053174,-2.18687118288134E-17));
#411=DIRECTION('',(1.20496295667406E-16,-2.18687118288134E-17,1.));
#412=DIRECTION('',(0.351402777545224,0.936224379053174,-2.18687118288134E-17));
#413=DIRECTION('',(1.20496295667406E-16,-2.18687118288134E-17,1.));
#414=DIRECTION('',(-0.936224379053174,0.351402777545224,1.20496295667406E-16));
#415=DIRECTION('',(1.20496295667406E-16,-2.18687118288134E-17,1.));
#416=DIRECTION('',(0.936224379053174,-0.351402777545224,-1.20496295667406E-16));
#417=DIRECTION('',(1.20496295667406E-16,-2.18687118288134E-17,1.));
#418=DIRECTION('',(0.351402777545224,0.936224379053174,-2.18687118288134E-17));
#419=DIRECTION('',(1.20496295667406E-16,-2.18687118288134E-17,1.));
#420=DIRECTION('',(0.351402777545224,0.936224379053174,-2.18687118288134E-17));
#421=DIRECTION('',(0.512937747889579,0.858425807388133,-4.30344319204885E-17));
#422=DIRECTION('',(1.20496295667406E-16,-2.18687118288134E-17,1.));
#423=DIRECTION('',(0.351402777545224,0.936224379053174,-2.18687118288134E-17));
#424=DIRECTION('',(-0.178571583611203,-0.983926922858902,3.08148791101958E-33));
#425=DIRECTION('',(1.20496295667406E-16,-2.18687118288134E-17,1.));
#426=DIRECTION('',(-0.936224379053174,0.351402777545224,1.20496295667406E-16));
#427=DIRECTION('',(1.20496295667406E-16,-2.18687118288134E-17,1.));
#428=DIRECTION('',(0.351402777545224,0.936224379053174,-2.18687118288134E-17));
#429=DIRECTION('',(1.20496295667406E-16,-2.18687118288134E-17,1.));
#430=DIRECTION('',(0.351402777545224,0.936224379053174,-2.18687118288134E-17));
#431=DIRECTION('',(-0.512937747889579,-0.858425807388133,4.30344319204885E-17));
#432=DIRECTION('',(1.20496295667406E-16,-2.18687118288134E-17,1.));
#433=DIRECTION('',(0.351402777545224,0.936224379053174,-2.18687118288134E-17));
#434=DIRECTION('',(0.178571583611203,0.983926922858902,-3.08148791101958E-33));
#435=DIRECTION('',(1.20496295667406E-16,-2.18687118288134E-17,1.));
#436=DIRECTION('',(0.351402777545224,0.936224379053174,-2.18687118288134E-17));
#437=DIRECTION('',(1.20496295667406E-16,-2.18687118288134E-17,1.));
#438=DIRECTION('',(0.351402777545224,0.936224379053174,-2.18687118288134E-17));
#439=DIRECTION('',(-1.20496295667406E-16,2.18687118288134E-17,-1.));
#440=DIRECTION('',(-0.351402777545224,-0.936224379053174,2.18687118288134E-17));
#441=DIRECTION('',(0.695741399345544,-0.126269177698703,-0.707106781186545));
#442=DIRECTION('',(0.178571583611203,0.983926922858902,-3.08148791101958E-33));
#443=DIRECTION('',(-0.695741399345541,0.126269177698702,-0.707106781186549));
#444=DIRECTION('',(0.69574139934554,-0.126269177698702,0.707106781186549));
#445=DIRECTION('',(-1.20496295667406E-16,2.18687118288134E-17,-1.));
#446=DIRECTION('',(-0.351402777545224,-0.936224379053174,2.18687118288134E-17));
#447=DIRECTION('',(-0.606998709549684,0.362701759859275,0.70710678118655));
#448=DIRECTION('',(-1.20496295667406E-16,2.18687118288134E-17,-1.));
#449=DIRECTION('',(-0.351402777545224,-0.936224379053174,2.18687118288134E-17));
#450=DIRECTION('',(0.606998709549685,-0.362701759859275,-0.707106781186549));
#451=DIRECTION('',(-0.606998709549688,0.362701759859279,-0.707106781186544));
#452=DIRECTION('',(-0.512937747889579,-0.858425807388133,4.30344319204885E-17));
#453=DIRECTION('',(-0.695741399345544,0.126269177698703,-0.707106781186545));
#454=DIRECTION('',(-0.178571583611203,-0.983926922858902,3.08148791101958E-33));
#455=DIRECTION('',(0.69574139934554,-0.126269177698702,-0.70710678118655));
#456=DIRECTION('',(-0.69574139934554,0.126269177698702,0.70710678118655));
#457=DIRECTION('',(1.20496295667406E-16,-2.18687118288134E-17,1.));
#458=DIRECTION('',(0.351402777545224,0.936224379053174,-2.18687118288134E-17));
#459=DIRECTION('',(0.606998709549684,-0.362701759859275,0.70710678118655));
#460=DIRECTION('',(1.20496295667406E-16,-2.18687118288134E-17,1.));
#461=DIRECTION('',(0.351402777545224,0.936224379053174,-2.18687118288134E-17));
#462=DIRECTION('',(-0.606998709549685,0.362701759859275,-0.707106781186548));
#463=DIRECTION('',(0.606998709549688,-0.362701759859279,-0.707106781186544));
#464=DIRECTION('',(0.512937747889579,0.858425807388133,-4.30344319204885E-17));
#465=DIRECTION('',(-1.20496295667406E-16,2.18687118288134E-17,-1.));
#466=DIRECTION('',(-0.351402777545224,-0.936224379053174,2.18687118288134E-17));
#467=DIRECTION('',(1.20496295667406E-16,-2.18687118288134E-17,1.));
#468=DIRECTION('',(0.936224379053174,-0.351402777545224,-1.20496295667406E-16));
#469=DIRECTION('',(1.20496295667406E-16,-2.18687118288134E-17,1.));
#470=DIRECTION('',(0.936224379053174,-0.351402777545224,-1.20496295667406E-16));
#471=DIRECTION('',(1.20496295667406E-16,-2.18687118288134E-17,1.));
#472=DIRECTION('',(0.936224379053174,-0.351402777545224,-1.20496295667406E-16));
#473=DIRECTION('',(1.20496295667406E-16,-2.18687118288134E-17,1.));
#474=DIRECTION('',(-0.936224379053174,0.351402777545224,1.20496295667406E-16));
#475=DIRECTION('',(1.20496295667406E-16,-2.18687118288134E-17,1.));
#476=DIRECTION('',(0.936224379053174,-0.351402777545224,-1.20496295667406E-16));
#477=CARTESIAN_POINT('',(0.,0.,0.));
#478=CARTESIAN_POINT('',(0.0122990741568793,-0.0153392960848389,-0.0045));
#479=CARTESIAN_POINT('',(0.0122990741568793,-0.0153392960848389,-0.007825));
#480=CARTESIAN_POINT('',(0.00988830134009496,-0.0144344357940769,-0.007825));
#481=CARTESIAN_POINT('',(0.0122990741568793,-0.0153392960848389,-0.0045));
#482=CARTESIAN_POINT('',(0.0147098469736637,-0.0162441563756009,-0.0045));
#483=CARTESIAN_POINT('',(0.0122990783513956,-0.0153392943037097,-0.0045));
#484=CARTESIAN_POINT('',(0.00737944859912021,-0.014446437268055,-0.0045));
#485=CARTESIAN_POINT('',(0.00737944859912021,-0.014446437268055,0.000250000000000004));
#486=CARTESIAN_POINT('',(0.00737944859912021,-0.014446437268055,-0.0077));
#487=CARTESIAN_POINT('',(0.0122990783513956,-0.0153392943037097,0.000250000000000005));
#488=CARTESIAN_POINT('',(0.0165912031464738,-0.0179039805085047,0.00025));
#489=CARTESIAN_POINT('',(0.0165912031464738,-0.0179039805085047,-0.0045));
#490=CARTESIAN_POINT('',(0.0165912031464738,-0.0179039805085047,-0.0077));
#491=CARTESIAN_POINT('',(0.0122990783513956,-0.0153392943037097,-0.0077));
#492=CARTESIAN_POINT('',(0.00614953771707404,-0.0212232289898396,-0.0045));
#493=CARTESIAN_POINT('',(0.00491962683502787,-0.0280000207116241,-0.0045));
#494=CARTESIAN_POINT('',(0.00491962683502787,-0.0280000207116241,0.000250000000000004));
#495=CARTESIAN_POINT('',(0.00491962683502787,-0.0280000207116241,-0.0077));
#496=CARTESIAN_POINT('',(0.00614953771707404,-0.0212232289898396,0.000250000000000005));
#497=CARTESIAN_POINT('',(0.00491962683502787,-0.0280000207116241,-0.0077));
#498=CARTESIAN_POINT('',(0.00737943462495547,-0.0284464479433847,-0.0045));
#499=CARTESIAN_POINT('',(0.00952549084013946,-0.0297287873516211,-0.0045));
#500=CARTESIAN_POINT('',(0.00952549084013946,-0.0297287873516211,0.00025));
#501=CARTESIAN_POINT('',(0.00952549084013946,-0.0297287873516211,-0.0077));
#502=CARTESIAN_POINT('',(0.00737943462495547,-0.0284464479433847,0.000250000000000005));
#503=CARTESIAN_POINT('',(0.00737943462495547,-0.0284464479433847,-0.0077));
#504=CARTESIAN_POINT('',(0.0130583469933066,-0.0238163839300629,-0.0045));
#505=CARTESIAN_POINT('',(0.0130583469933066,-0.0238163839300629,0.000250000000000005));
#506=CARTESIAN_POINT('',(0.0165912031464738,-0.0179039805085047,-0.0077));
#507=CARTESIAN_POINT('',(0.00737943813498436,-0.0284464398089025,-0.0045));
#508=CARTESIAN_POINT('',(0.00737943813498436,-0.0284464398089025,0.000250000000000007));
#509=CARTESIAN_POINT('',(0.00788897083729843,-0.0270889179897419,0.000250000000000007));
#510=CARTESIAN_POINT('',(0.00737943813498435,-0.0284464398089025,-0.0077));
#511=CARTESIAN_POINT('',(0.00788897083729842,-0.0270889179897419,-0.0077));
#512=CARTESIAN_POINT('',(0.0102785108841994,-0.0207225884698104,0.000500000000000007));
#513=CARTESIAN_POINT('',(0.0122990741568793,-0.0153392960848389,0.000500000000000007));
#514=CARTESIAN_POINT('',(0.0160670063949014,-0.0167535530553551,0.000500000000000007));
#515=CARTESIAN_POINT('',(0.00737943813498436,-0.0284464398089025,0.000500000000000007));
#516=CARTESIAN_POINT('',(0.00797682153168474,-0.0268548618949786,0.000500000000000007));
#517=CARTESIAN_POINT('',(0.00737943462495547,-0.0284464479433847,0.000500000000000007));
#518=CARTESIAN_POINT('',(0.0051656085657426,-0.0280446636075269,0.000500000000000007));
#519=CARTESIAN_POINT('',(0.00931088438829244,-0.0296005529146487,0.000500000000000007));
#520=CARTESIAN_POINT('',(0.0134746083160846,-0.0226323621562923,0.000500000000000006));
#521=CARTESIAN_POINT('',(0.0163765966946268,-0.0177757460715324,0.000500000000000006));
#522=CARTESIAN_POINT('',(0.0122990783513956,-0.0153392943037097,0.000500000000000007));
#523=CARTESIAN_POINT('',(0.00762543032983493,-0.0144910801639578,0.000500000000000007));
#524=CARTESIAN_POINT('',(0.00661514659623684,-0.0200577293760624,0.000500000000000007));
#525=CARTESIAN_POINT('',(0.0102785108841994,-0.0207225884698104,-0.00795));
#526=CARTESIAN_POINT('',(0.00737943813498435,-0.0284464398089025,-0.00795));
#527=CARTESIAN_POINT('',(0.00797682153168473,-0.0268548618949786,-0.00795));
#528=CARTESIAN_POINT('',(0.0122990783513956,-0.0153392943037097,-0.00795));
#529=CARTESIAN_POINT('',(0.00762543032983493,-0.0144910801639578,-0.00795));
#530=CARTESIAN_POINT('',(0.0163765966946268,-0.0177757460715324,-0.00795));
#531=CARTESIAN_POINT('',(0.00931088438829243,-0.0296005529146487,-0.00795));
#532=CARTESIAN_POINT('',(0.00931088438829244,-0.0296005529146487,-0.00795));
#533=CARTESIAN_POINT('',(0.00737943462495547,-0.0284464479433847,-0.00795));
#534=CARTESIAN_POINT('',(0.00516560856574259,-0.0280446636075269,-0.00795));
#535=CARTESIAN_POINT('',(0.00762543032983494,-0.0144910801639578,-0.00795));
#536=CARTESIAN_POINT('',(0.0122990741568793,-0.0153392960848389,-0.00795));
#537=CARTESIAN_POINT('',(0.0132478597948345,-0.0128114952206729,-0.00795));
#538=CARTESIAN_POINT('',(0.00737943813498436,-0.0284464398089025,0.000250000000000007));
#539=CARTESIAN_POINT('',(0.00737943813498435,-0.0284464398089025,-0.00795));
#540=CARTESIAN_POINT('',(0.00614953771707404,-0.0212232289898396,0.000250000000000005));
#541=CARTESIAN_POINT('',(0.0051656085657426,-0.0280446636075269,0.000500000000000007));
#542=CARTESIAN_POINT('',(0.00737944859912021,-0.014446437268055,0.000250000000000005));
#543=CARTESIAN_POINT('',(0.0122990783513956,-0.0153392943037097,0.000500000000000007));
#544=CARTESIAN_POINT('',(0.0165912031464738,-0.0179039805085047,0.000250000000000004));
#545=CARTESIAN_POINT('',(0.00737943462495547,-0.0284464479433847,0.000500000000000007));
#546=CARTESIAN_POINT('',(0.00931088438829244,-0.0296005529146487,0.000500000000000007));
#547=CARTESIAN_POINT('',(0.0130583469933066,-0.0238163839300629,0.000250000000000005));
#548=CARTESIAN_POINT('',(0.00661514659623684,-0.0200577293760624,-0.00795));
#549=CARTESIAN_POINT('',(0.00491962683502787,-0.0280000207116241,-0.0077));
#550=CARTESIAN_POINT('',(0.00762543032983494,-0.0144910801639578,-0.00795));
#551=CARTESIAN_POINT('',(0.0122990783513956,-0.0153392943037097,-0.0077));
#552=CARTESIAN_POINT('',(0.0163765966946268,-0.0177757460715324,-0.00795));
#553=CARTESIAN_POINT('',(0.00737943462495547,-0.0284464479433847,-0.0077));
#554=CARTESIAN_POINT('',(0.00952549084013947,-0.0297287873516211,-0.0077));
#555=CARTESIAN_POINT('',(0.0134746083160846,-0.0226323621562923,-0.00795));
#556=CARTESIAN_POINT('',(0.0122990741568793,-0.0153392960848389,-0.00795));
#557=CARTESIAN_POINT('',(0.0122990741568793,-0.0153392960848389,-0.0045));
#558=CARTESIAN_POINT('',(0.0122990741568793,-0.0153392960848389,0.000250152293245238));
#559=CARTESIAN_POINT('',(0.0158247818602307,-0.0166626364159497,0.000250152293245238));
#560=CARTESIAN_POINT('',(0.0122990741568793,-0.0153392960848389,-0.0045));
#561=CARTESIAN_POINT('',(0.0156694819214707,-0.0166043460840017,-0.0045));
#562=CARTESIAN_POINT('',(0.0102785108841994,-0.0207225884698104,-0.0045));
#563=CARTESIAN_POINT('',(0.0122990741568793,-0.0153392960848389,0.000250152293245238));
#564=MECHANICAL_DESIGN_GEOMETRIC_PRESENTATION_REPRESENTATION('',(#323),
#565);
#565=(
GEOMETRIC_REPRESENTATION_CONTEXT(3)
GLOBAL_UNCERTAINTY_ASSIGNED_CONTEXT((#566))
GLOBAL_UNIT_ASSIGNED_CONTEXT((#569,#568,#567))
REPRESENTATION_CONTEXT('Cog','TOP_LEVEL_ASSEMBLY_PART')
);
#566=UNCERTAINTY_MEASURE_WITH_UNIT(LENGTH_MEASURE(1.E-8),#569,
'DISTANCE_ACCURACY_VALUE','Maximum Tolerance applied to model');
#567=(
NAMED_UNIT(*)
SI_UNIT($,.STERADIAN.)
SOLID_ANGLE_UNIT()
);
#568=(
NAMED_UNIT(*)
PLANE_ANGLE_UNIT()
SI_UNIT($,.RADIAN.)
);
#569=(
LENGTH_UNIT()
NAMED_UNIT(*)
SI_UNIT($,.METRE.)
);
#570=PRODUCT_DEFINITION_SHAPE('','',#571);
#571=PRODUCT_DEFINITION('','',#573,#572);
#572=PRODUCT_DEFINITION_CONTEXT('',#579,'design');
#573=PRODUCT_DEFINITION_FORMATION_WITH_SPECIFIED_SOURCE('','',#575,
 .NOT_KNOWN.);
#574=PRODUCT_RELATED_PRODUCT_CATEGORY('','',(#575));
#575=PRODUCT('Cog','Cog','Cog',(#577));
#576=PRODUCT_CATEGORY('','');
#577=PRODUCT_CONTEXT('',#579,'mechanical');
#578=APPLICATION_PROTOCOL_DEFINITION('international standard',
'ap242_managed_model_based_3d_engineering',2011,#579);
#579=APPLICATION_CONTEXT('managed model based 3d engineering');
ENDSEC;
END-ISO-10303-21;
